<?xml version="1.0" encoding="utf-8"?>
<svg version="1.1" xmlns:xlink="http://www.w3.org/1999/xlink" width="19px" height="18px" xmlns="http://www.w3.org/2000/svg">
  <g transform="matrix(1 0 0 1 -111 -140 )">
    <path d="M 9.96651785714286 17.7890625  C 9.83928571428572 17.9296875  9.68377976190476 18  9.5 18  C 9.31622023809524 18  9.16071428571429 17.9296875  9.03348214285714 17.7890625  L 2.41741071428571 10.734375  C 2.34672619047619 10.671875  2.2495349702381 10.5703125  2.12583705357143 10.4296875  C 2.00213913690476 10.2890625  1.80598958333333 10.033203125  1.53738839285714 9.662109375  C 1.26878720238095 9.291015625  1.02845982142857 8.91015625  0.81640625 8.51953125  C 0.604352678571428 8.12890625  0.415271577380952 7.65625  0.249162946428571 7.1015625  C 0.0830543154761905 6.546875  0 6.0078125  0 5.484375  C 0 3.765625  0.448846726190476 2.421875  1.34654017857143 1.453125  C 2.24423363095238 0.484375  3.48474702380952 0  5.06808035714286 0  C 5.50632440476191 0  5.95340401785714 0.0839843749999989  6.40931919642857 0.251953125000001  C 6.865234375 0.419921874999998  7.28934151785714 0.646484374999999  7.681640625 0.931640625  C 8.07393973214286 1.216796875  8.41145833333334 1.484375  8.69419642857143 1.734375  C 8.97693452380953 1.984375  9.24553571428571 2.25  9.5 2.53125  C 9.75446428571428 2.25  10.0230654761905 1.984375  10.3058035714286 1.734375  C 10.5885416666667 1.484375  10.9260602678571 1.216796875  11.318359375 0.931640625  C 11.7106584821429 0.646484374999999  12.134765625 0.419921874999998  12.5906808035714 0.251953125000001  C 13.0465959821429 0.0839843749999989  13.4936755952381 0  13.9319196428571 0  C 15.5152529761905 0  16.7557663690476 0.484375  17.6534598214286 1.453125  C 18.5511532738095 2.421875  19 3.765625  19 5.484375  C 19 7.2109375  18.190662202381 8.96875  16.5719866071429 10.7578125  L 9.96651785714286 17.7890625  Z " fill-rule="nonzero" fill="#d9001b" stroke="none" transform="matrix(1 0 0 1 111 140 )" />
  </g>
</svg>