<?xml version="1.0" encoding="utf-8"?>
<svg version="1.1" xmlns:xlink="http://www.w3.org/1999/xlink" width="18px" height="17px" xmlns="http://www.w3.org/2000/svg">
  <g transform="matrix(1 0 0 1 -75 -288 )">
    <path d="M 12.2992788461538 10.4120982986767  L 12.8293269230769 9.90863264020164  L 15.609375 7.23062381852552  L 11.7584134615385 6.67359798361689  L 11.0444711538462 6.56647763074984  L 10.7199519230769 5.92375551354757  L 9 2.47448015122873  L 9 12.7901701323251  L 9.63822115384615 13.122243226213  L 13.078125 14.9218651543793  L 12.4290865384615 11.1190926275992  L 12.2992788461538 10.4120982986767  Z M 17.9783653846154 6.46471329552615  C 18.0432692307692 6.66110060911573  17.9567307692308 6.87355597563537  17.71875 7.10207939508507  L 13.7920673076923 10.8941398865785  L 14.7223557692308 16.2501575299307  C 14.7584134615385 16.4858223062382  14.7367788461538 16.6697122453266  14.6574519230769 16.801827347196  C 14.578125 16.9339424490653  14.4555288461538 17  14.2896634615385 17  C 14.1670673076923 17  14.0228365384615 16.9571518588532  13.8569711538462 16.8714555765595  L 9 14.3434152488973  L 4.14302884615385 16.8714555765595  C 3.97716346153846 16.9571518588532  3.83293269230769 17  3.71033653846154 17  C 3.54447115384615 17  3.421875 16.9339424490653  3.34254807692308 16.801827347196  C 3.26322115384615 16.6697122453266  3.24158653846154 16.4858223062382  3.27764423076923 16.2501575299307  L 4.20793269230769 10.8941398865785  L 0.270432692307692 7.10207939508507  C 0.0396634615384615 6.87355597563537  -0.0432692307692308 6.66110060911573  0.0216346153846154 6.46471329552615  C 0.0865384615384615 6.26832598193657  0.28125 6.14513757613947  0.605769230769231 6.09514807813485  L 6.03605769230769 5.31316950220542  L 8.46995192307692 0.439193446754883  C 8.61418269230769 0.14639781558496  8.79086538461539 0  9 0  C 9.20192307692308 0  9.37860576923077 0.14639781558496  9.53004807692308 0.439193446754883  L 11.9639423076923 5.31316950220542  L 17.3942307692308 6.09514807813485  C 17.71875 6.14513757613947  17.9134615384615 6.26832598193657  17.9783653846154 6.46471329552615  Z " fill-rule="nonzero" fill="#000000" stroke="none" transform="matrix(1 0 0 1 75 288 )" />
  </g>
</svg>